<svg xmlns="http://www.w3.org/2000/svg" xmlns:xlink="http://www.w3.org/1999/xlink" contentStyleType="text/css" data-diagram-type="ACTIVITY" height="1587px" preserveAspectRatio="none" style="width:736px;height:1587px;background:#FFFFFF;" version="1.1" viewBox="0 0 736 1587" width="736px" zoomAndPan="magnify"><title>Active Noise Cancellation Flowchart &#128257;</title><defs/><g><text fill="#000000" font-family="sans-serif" font-size="14" font-weight="bold" lengthAdjust="spacing" textLength="296.9326" x="218.4172" y="32.9951">Active Noise Cancellation Flowchart &#128257;</text><rect fill="transparent" height="20.9531" style="stroke:transparent;stroke-width:1;" width="703.7671" x="15" y="50.042"/><polygon fill="#D5E8D4" points="30,75.9951,87.4131,75.9951,94.4131,98.292,110.3301,98.292,110.3301,166.2607,30,166.2607,30,75.9951" style="stroke:#000000;stroke-width:1.5;"/><line style="stroke:#000000;stroke-width:1.5;" x1="30" x2="94.4131" y1="98.292" y2="98.292"/><text fill="#000000" font-family="sans-serif" font-size="14" lengthAdjust="spacing" textLength="51.4131" x="34" y="90.9902">MatLab</text><rect fill="#F1F1F1" height="33.9688" rx="12.5" ry="12.5" style="stroke:#181818;stroke-width:0.5;" width="60.3301" x="40" y="112.292"/><text fill="#000000" font-family="sans-serif" font-size="12" lengthAdjust="spacing" textLength="40.3301" x="50" y="133.4307">Start &#9989;</text><polygon fill="#D5E8D4" points="30.8555,1484.9951,88.2686,1484.9951,95.2686,1507.292,109.4746,1507.292,109.4746,1575.2607,30.8555,1575.2607,30.8555,1484.9951" style="stroke:#000000;stroke-width:1.5;"/><line style="stroke:#000000;stroke-width:1.5;" x1="30.8555" x2="95.2686" y1="1507.292" y2="1507.292"/><text fill="#000000" font-family="sans-serif" font-size="14" lengthAdjust="spacing" textLength="51.4131" x="34.8555" y="1499.9902">MatLab</text><rect fill="#F1F1F1" height="33.9688" rx="12.5" ry="12.5" style="stroke:#181818;stroke-width:0.5;" width="58.6191" x="40.8555" y="1521.292"/><text fill="#000000" font-family="sans-serif" font-size="12" lengthAdjust="spacing" textLength="38.6191" x="50.8555" y="1542.4307">End &#128721;</text><line style="stroke:#000000;stroke-width:1.5;" x1="15" x2="15" y1="50.042" y2="1575.2607"/><polygon fill="#DAE8FC" points="140.3301,176.2607,187.9199,176.2607,194.9199,198.5576,296.791,198.5576,296.791,335.4951,140.3301,335.4951,140.3301,176.2607" style="stroke:#000000;stroke-width:1.5;"/><line style="stroke:#000000;stroke-width:1.5;" x1="140.3301" x2="194.9199" y1="198.5576" y2="198.5576"/><text fill="#000000" font-family="sans-serif" font-size="14" lengthAdjust="spacing" textLength="41.5898" x="144.3301" y="191.2559">run.m</text><rect fill="#F1F1F1" height="33.9688" rx="12.5" ry="12.5" style="stroke:#181818;stroke-width:0.5;" width="136.4609" x="150.3301" y="212.5576"/><text fill="#000000" font-family="sans-serif" font-size="12" lengthAdjust="spacing" textLength="116.4609" x="160.3301" y="233.6963">Initialize settings &#9881;&#65039;</text><rect fill="#F1F1F1" height="33.9688" rx="12.5" ry="12.5" style="stroke:#181818;stroke-width:0.5;" width="80" x="178.5605" y="281.5264"/><text fill="#000000" font-family="sans-serif" font-size="12" lengthAdjust="spacing" textLength="60" x="188.5605" y="302.665">Run GUI &#128421;&#65039;</text><line style="stroke:#000000;stroke-width:1.5;" x1="125.3301" x2="125.3301" y1="50.042" y2="1575.2607"/><polygon fill="#FFF2CC" points="326.791,345.4951,372.5283,345.4951,379.5283,367.792,441.6094,367.792,441.6094,504.7295,326.791,504.7295,326.791,345.4951" style="stroke:#000000;stroke-width:1.5;"/><line style="stroke:#000000;stroke-width:1.5;" x1="326.791" x2="379.5283" y1="367.792" y2="367.792"/><text fill="#000000" font-family="sans-serif" font-size="14" lengthAdjust="spacing" textLength="39.7373" x="330.791" y="360.4902">gui.m</text><rect fill="#F1F1F1" height="33.9688" rx="12.5" ry="12.5" style="stroke:#181818;stroke-width:0.5;" width="94.8184" x="336.791" y="381.792"/><text fill="#000000" font-family="sans-serif" font-size="12" lengthAdjust="spacing" textLength="74.8184" x="346.791" y="402.9307">Set modes &#129518;</text><rect fill="#F1F1F1" height="33.9688" rx="12.5" ry="12.5" style="stroke:#181818;stroke-width:0.5;" width="83.9434" x="342.2285" y="450.7607"/><text fill="#000000" font-family="sans-serif" font-size="12" lengthAdjust="spacing" textLength="63.9434" x="352.2285" y="471.8994">Run ANC &#128266;</text><line style="stroke:#000000;stroke-width:1.5;" x1="311.791" x2="311.791" y1="50.042" y2="1575.2607"/><polygon fill="#F8CECC" points="471.6094,514.7295,520.8467,514.7295,527.8467,537.0264,701.9063,537.0264,701.9063,1474.9951,471.6094,1474.9951,471.6094,514.7295" style="stroke:#000000;stroke-width:1.5;"/><line style="stroke:#000000;stroke-width:1.5;" x1="471.6094" x2="527.8467" y1="537.0264" y2="537.0264"/><text fill="#000000" font-family="sans-serif" font-size="14" lengthAdjust="spacing" textLength="43.2373" x="475.6094" y="529.7246">anc.m</text><rect fill="#F1F1F1" height="33.9688" rx="12.5" ry="12.5" style="stroke:#181818;stroke-width:0.5;" width="102.2422" x="529.6367" y="551.0264"/><text fill="#000000" font-family="sans-serif" font-size="12" lengthAdjust="spacing" textLength="82.2422" x="539.6367" y="572.165">Read config &#128209;</text><rect fill="#F1F1F1" height="33.9688" rx="12.5" ry="12.5" style="stroke:#181818;stroke-width:0.5;" width="90.8574" x="535.3291" y="619.9951"/><text fill="#000000" font-family="sans-serif" font-size="12" lengthAdjust="spacing" textLength="70.8574" x="545.3291" y="641.1338">Load data &#128202;</text><rect fill="#F1F1F1" height="33.9688" rx="12.5" ry="12.5" style="stroke:#181818;stroke-width:0.5;" width="154.6543" x="503.4307" y="688.9639"/><text fill="#000000" font-family="sans-serif" font-size="12" lengthAdjust="spacing" textLength="134.6543" x="513.4307" y="710.1025">Initialize parameters &#128295;</text><rect fill="#F1F1F1" height="33.9688" rx="12.5" ry="12.5" style="stroke:#181818;stroke-width:0.5;" width="110.293" x="525.6113" y="806.335"/><text fill="#000000" font-family="sans-serif" font-size="12" lengthAdjust="spacing" textLength="90.293" x="535.6113" y="827.4736">Record audio &#127908;</text><polygon fill="#F1F1F1" points="536.0972,757.9326,625.4185,757.9326,637.4185,769.9326,625.4185,781.9326,536.0972,781.9326,524.0972,769.9326,536.0972,757.9326" style="stroke:#181818;stroke-width:0.5;"/><text fill="#000000" font-family="sans-serif" font-size="11" lengthAdjust="spacing" textLength="19.0083" x="584.7578" y="792.1431">yes</text><text fill="#000000" font-family="sans-serif" font-size="11" lengthAdjust="spacing" textLength="89.3213" x="536.0972" y="773.7407">Record mode? &#128256;</text><text fill="#000000" font-family="sans-serif" font-size="11" lengthAdjust="spacing" textLength="13.7017" x="637.4185" y="767.3384">no</text><polygon fill="#F1F1F1" points="580.7578,864.7061,592.7578,876.7061,580.7578,888.7061,568.7578,876.7061,580.7578,864.7061" style="stroke:#181818;stroke-width:0.5;"/><rect fill="#F1F1F1" height="33.9688" rx="12.5" ry="12.5" style="stroke:#181818;stroke-width:0.5;" width="178.2969" x="491.6094" y="972.1084"/><text fill="#000000" font-family="sans-serif" font-size="12" lengthAdjust="spacing" textLength="158.2969" x="501.6094" y="993.2471">Simulate adaptive filters &#129504;</text><polygon fill="#F1F1F1" points="531.1423,923.7061,630.3733,923.7061,642.3733,935.7061,630.3733,947.7061,531.1423,947.7061,519.1423,935.7061,531.1423,923.7061" style="stroke:#181818;stroke-width:0.5;"/><text fill="#000000" font-family="sans-serif" font-size="11" lengthAdjust="spacing" textLength="19.0083" x="584.7578" y="957.9165">yes</text><text fill="#000000" font-family="sans-serif" font-size="11" lengthAdjust="spacing" textLength="99.231" x="531.1423" y="939.5142">Simulate mode? &#128256;</text><text fill="#000000" font-family="sans-serif" font-size="11" lengthAdjust="spacing" textLength="13.7017" x="642.3733" y="933.1118">no</text><polygon fill="#F1F1F1" points="580.7578,1030.4795,592.7578,1042.4795,580.7578,1054.4795,568.7578,1042.4795,580.7578,1030.4795" style="stroke:#181818;stroke-width:0.5;"/><rect fill="#F1F1F1" height="33.9688" rx="12.5" ry="12.5" style="stroke:#181818;stroke-width:0.5;" width="158.2402" x="501.6377" y="1137.8818"/><text fill="#000000" font-family="sans-serif" font-size="12" lengthAdjust="spacing" textLength="138.2402" x="511.6377" y="1159.0205">Optimize parameters &#127919;</text><polygon fill="#F1F1F1" points="530.7825,1089.4795,630.7332,1089.4795,642.7332,1101.4795,630.7332,1113.4795,530.7825,1113.4795,518.7825,1101.4795,530.7825,1089.4795" style="stroke:#181818;stroke-width:0.5;"/><text fill="#000000" font-family="sans-serif" font-size="11" lengthAdjust="spacing" textLength="19.0083" x="584.7578" y="1123.6899">yes</text><text fill="#000000" font-family="sans-serif" font-size="11" lengthAdjust="spacing" textLength="99.9507" x="530.7825" y="1105.2876">Optimize mode? &#128256;</text><text fill="#000000" font-family="sans-serif" font-size="11" lengthAdjust="spacing" textLength="13.7017" x="642.7332" y="1098.8853">no</text><polygon fill="#F1F1F1" points="580.7578,1196.2529,592.7578,1208.2529,580.7578,1220.2529,568.7578,1208.2529,580.7578,1196.2529" style="stroke:#181818;stroke-width:0.5;"/><rect fill="#F1F1F1" height="33.9688" rx="12.5" ry="12.5" style="stroke:#181818;stroke-width:0.5;" width="161.5625" x="499.9766" y="1303.6553"/><text fill="#000000" font-family="sans-serif" font-size="12" lengthAdjust="spacing" textLength="141.5625" x="509.9766" y="1324.7939">Apply noise reduction &#127911;</text><polygon fill="#F1F1F1" points="527.7021,1255.2529,633.8135,1255.2529,645.8135,1267.2529,633.8135,1279.2529,527.7021,1279.2529,515.7021,1267.2529,527.7021,1255.2529" style="stroke:#181818;stroke-width:0.5;"/><text fill="#000000" font-family="sans-serif" font-size="11" lengthAdjust="spacing" textLength="19.0083" x="584.7578" y="1289.4634">yes</text><text fill="#000000" font-family="sans-serif" font-size="11" lengthAdjust="spacing" textLength="106.1113" x="527.7021" y="1271.061">Reduction mode? &#128256;</text><text fill="#000000" font-family="sans-serif" font-size="11" lengthAdjust="spacing" textLength="13.7017" x="645.8135" y="1264.6587">no</text><polygon fill="#F1F1F1" points="580.7578,1362.0264,592.7578,1374.0264,580.7578,1386.0264,568.7578,1374.0264,580.7578,1362.0264" style="stroke:#181818;stroke-width:0.5;"/><rect fill="#F1F1F1" height="33.9688" rx="12.5" ry="12.5" style="stroke:#181818;stroke-width:0.5;" width="85.3438" x="538.0859" y="1421.0264"/><text fill="#000000" font-family="sans-serif" font-size="12" lengthAdjust="spacing" textLength="65.3438" x="548.0859" y="1442.165">Write log &#128196;</text><line style="stroke:#000000;stroke-width:1.5;" x1="456.6094" x2="456.6094" y1="50.042" y2="1575.2607"/><line style="stroke:#000000;stroke-width:1.5;" x1="716.9063" x2="716.9063" y1="50.042" y2="1575.2607"/><line style="stroke:#181818;stroke-width:1;" x1="218.5605" x2="218.5605" y1="246.5264" y2="281.5264"/><polygon fill="#181818" points="214.5605,271.5264,218.5605,281.5264,222.5605,271.5264,218.5605,275.5264" style="stroke:#181818;stroke-width:1;"/><line style="stroke:#181818;stroke-width:1;" x1="384.2002" x2="384.2002" y1="415.7607" y2="450.7607"/><polygon fill="#181818" points="380.2002,440.7607,384.2002,450.7607,388.2002,440.7607,384.2002,444.7607" style="stroke:#181818;stroke-width:1;"/><line style="stroke:#181818;stroke-width:1;" x1="580.7578" x2="580.7578" y1="584.9951" y2="619.9951"/><polygon fill="#181818" points="576.7578,609.9951,580.7578,619.9951,584.7578,609.9951,580.7578,613.9951" style="stroke:#181818;stroke-width:1;"/><line style="stroke:#181818;stroke-width:1;" x1="580.7578" x2="580.7578" y1="653.9639" y2="688.9639"/><polygon fill="#181818" points="576.7578,678.9639,580.7578,688.9639,584.7578,678.9639,580.7578,682.9639" style="stroke:#181818;stroke-width:1;"/><line style="stroke:#181818;stroke-width:1;" x1="580.7578" x2="580.7578" y1="781.9326" y2="806.335"/><polygon fill="#181818" points="576.7578,796.335,580.7578,806.335,584.7578,796.335,580.7578,800.335" style="stroke:#181818;stroke-width:1;"/><line style="stroke:#181818;stroke-width:1;" x1="637.4185" x2="649.4185" y1="769.9326" y2="769.9326"/><polygon fill="#181818" points="645.4185,813.3193,649.4185,823.3193,653.4185,813.3193,649.4185,817.3193" style="stroke:#181818;stroke-width:1;"/><line style="stroke:#181818;stroke-width:1;" x1="649.4185" x2="649.4185" y1="769.9326" y2="876.7061"/><line style="stroke:#181818;stroke-width:1;" x1="649.4185" x2="592.7578" y1="876.7061" y2="876.7061"/><polygon fill="#181818" points="602.7578,872.7061,592.7578,876.7061,602.7578,880.7061,598.7578,876.7061" style="stroke:#181818;stroke-width:1;"/><line style="stroke:#181818;stroke-width:1;" x1="580.7578" x2="580.7578" y1="840.3037" y2="864.7061"/><polygon fill="#181818" points="576.7578,854.7061,580.7578,864.7061,584.7578,854.7061,580.7578,858.7061" style="stroke:#181818;stroke-width:1;"/><line style="stroke:#181818;stroke-width:1;" x1="580.7578" x2="580.7578" y1="722.9326" y2="757.9326"/><polygon fill="#181818" points="576.7578,747.9326,580.7578,757.9326,584.7578,747.9326,580.7578,751.9326" style="stroke:#181818;stroke-width:1;"/><line style="stroke:#181818;stroke-width:1;" x1="580.7578" x2="580.7578" y1="947.7061" y2="972.1084"/><polygon fill="#181818" points="576.7578,962.1084,580.7578,972.1084,584.7578,962.1084,580.7578,966.1084" style="stroke:#181818;stroke-width:1;"/><line style="stroke:#181818;stroke-width:1;" x1="642.3733" x2="679.9063" y1="935.7061" y2="935.7061"/><polygon fill="#181818" points="675.9063,979.0928,679.9063,989.0928,683.9063,979.0928,679.9063,983.0928" style="stroke:#181818;stroke-width:1;"/><line style="stroke:#181818;stroke-width:1;" x1="679.9063" x2="679.9063" y1="935.7061" y2="1042.4795"/><line style="stroke:#181818;stroke-width:1;" x1="679.9063" x2="592.7578" y1="1042.4795" y2="1042.4795"/><polygon fill="#181818" points="602.7578,1038.4795,592.7578,1042.4795,602.7578,1046.4795,598.7578,1042.4795" style="stroke:#181818;stroke-width:1;"/><line style="stroke:#181818;stroke-width:1;" x1="580.7578" x2="580.7578" y1="1006.0771" y2="1030.4795"/><polygon fill="#181818" points="576.7578,1020.4795,580.7578,1030.4795,584.7578,1020.4795,580.7578,1024.4795" style="stroke:#181818;stroke-width:1;"/><line style="stroke:#181818;stroke-width:1;" x1="580.7578" x2="580.7578" y1="888.7061" y2="923.7061"/><polygon fill="#181818" points="576.7578,913.7061,580.7578,923.7061,584.7578,913.7061,580.7578,917.7061" style="stroke:#181818;stroke-width:1;"/><line style="stroke:#181818;stroke-width:1;" x1="580.7578" x2="580.7578" y1="1113.4795" y2="1137.8818"/><polygon fill="#181818" points="576.7578,1127.8818,580.7578,1137.8818,584.7578,1127.8818,580.7578,1131.8818" style="stroke:#181818;stroke-width:1;"/><line style="stroke:#181818;stroke-width:1;" x1="642.7332" x2="669.8779" y1="1101.4795" y2="1101.4795"/><polygon fill="#181818" points="665.8779,1144.8662,669.8779,1154.8662,673.8779,1144.8662,669.8779,1148.8662" style="stroke:#181818;stroke-width:1;"/><line style="stroke:#181818;stroke-width:1;" x1="669.8779" x2="669.8779" y1="1101.4795" y2="1208.2529"/><line style="stroke:#181818;stroke-width:1;" x1="669.8779" x2="592.7578" y1="1208.2529" y2="1208.2529"/><polygon fill="#181818" points="602.7578,1204.2529,592.7578,1208.2529,602.7578,1212.2529,598.7578,1208.2529" style="stroke:#181818;stroke-width:1;"/><line style="stroke:#181818;stroke-width:1;" x1="580.7578" x2="580.7578" y1="1171.8506" y2="1196.2529"/><polygon fill="#181818" points="576.7578,1186.2529,580.7578,1196.2529,584.7578,1186.2529,580.7578,1190.2529" style="stroke:#181818;stroke-width:1;"/><line style="stroke:#181818;stroke-width:1;" x1="580.7578" x2="580.7578" y1="1054.4795" y2="1089.4795"/><polygon fill="#181818" points="576.7578,1079.4795,580.7578,1089.4795,584.7578,1079.4795,580.7578,1083.4795" style="stroke:#181818;stroke-width:1;"/><line style="stroke:#181818;stroke-width:1;" x1="580.7578" x2="580.7578" y1="1279.2529" y2="1303.6553"/><polygon fill="#181818" points="576.7578,1293.6553,580.7578,1303.6553,584.7578,1293.6553,580.7578,1297.6553" style="stroke:#181818;stroke-width:1;"/><line style="stroke:#181818;stroke-width:1;" x1="645.8135" x2="671.5391" y1="1267.2529" y2="1267.2529"/><polygon fill="#181818" points="667.5391,1310.6396,671.5391,1320.6396,675.5391,1310.6396,671.5391,1314.6396" style="stroke:#181818;stroke-width:1;"/><line style="stroke:#181818;stroke-width:1;" x1="671.5391" x2="671.5391" y1="1267.2529" y2="1374.0264"/><line style="stroke:#181818;stroke-width:1;" x1="671.5391" x2="592.7578" y1="1374.0264" y2="1374.0264"/><polygon fill="#181818" points="602.7578,1370.0264,592.7578,1374.0264,602.7578,1378.0264,598.7578,1374.0264" style="stroke:#181818;stroke-width:1;"/><line style="stroke:#181818;stroke-width:1;" x1="580.7578" x2="580.7578" y1="1337.624" y2="1362.0264"/><polygon fill="#181818" points="576.7578,1352.0264,580.7578,1362.0264,584.7578,1352.0264,580.7578,1356.0264" style="stroke:#181818;stroke-width:1;"/><line style="stroke:#181818;stroke-width:1;" x1="580.7578" x2="580.7578" y1="1220.2529" y2="1255.2529"/><polygon fill="#181818" points="576.7578,1245.2529,580.7578,1255.2529,584.7578,1245.2529,580.7578,1249.2529" style="stroke:#181818;stroke-width:1;"/><line style="stroke:#181818;stroke-width:1;" x1="580.7578" x2="580.7578" y1="1386.0264" y2="1421.0264"/><polygon fill="#181818" points="576.7578,1411.0264,580.7578,1421.0264,584.7578,1411.0264,580.7578,1415.0264" style="stroke:#181818;stroke-width:1;"/><line style="stroke:#181818;stroke-width:1;" x1="70.165" x2="70.165" y1="146.2607" y2="171.2607"/><line style="stroke:#181818;stroke-width:1;" x1="70.165" x2="218.5605" y1="171.2607" y2="171.2607"/><line style="stroke:#181818;stroke-width:1;" x1="218.5605" x2="218.5605" y1="171.2607" y2="212.5576"/><polygon fill="#181818" points="214.5605,202.5576,218.5605,212.5576,222.5605,202.5576,218.5605,206.5576" style="stroke:#181818;stroke-width:1;"/><line style="stroke:#181818;stroke-width:1;" x1="218.5605" x2="218.5605" y1="315.4951" y2="340.4951"/><line style="stroke:#181818;stroke-width:1;" x1="218.5605" x2="384.2002" y1="340.4951" y2="340.4951"/><line style="stroke:#181818;stroke-width:1;" x1="384.2002" x2="384.2002" y1="340.4951" y2="381.792"/><polygon fill="#181818" points="380.2002,371.792,384.2002,381.792,388.2002,371.792,384.2002,375.792" style="stroke:#181818;stroke-width:1;"/><line style="stroke:#181818;stroke-width:1;" x1="384.2002" x2="384.2002" y1="484.7295" y2="509.7295"/><line style="stroke:#181818;stroke-width:1;" x1="384.2002" x2="580.7578" y1="509.7295" y2="509.7295"/><line style="stroke:#181818;stroke-width:1;" x1="580.7578" x2="580.7578" y1="509.7295" y2="551.0264"/><polygon fill="#181818" points="576.7578,541.0264,580.7578,551.0264,584.7578,541.0264,580.7578,545.0264" style="stroke:#181818;stroke-width:1;"/><line style="stroke:#181818;stroke-width:1;" x1="580.7578" x2="580.7578" y1="1454.9951" y2="1479.9951"/><line style="stroke:#181818;stroke-width:1;" x1="580.7578" x2="70.165" y1="1479.9951" y2="1479.9951"/><line style="stroke:#181818;stroke-width:1;" x1="70.165" x2="70.165" y1="1479.9951" y2="1521.292"/><polygon fill="#181818" points="66.165,1511.292,70.165,1521.292,74.165,1511.292,70.165,1515.292" style="stroke:#181818;stroke-width:1;"/><text fill="#000000" font-family="sans-serif" font-size="18" lengthAdjust="spacing" textLength="82.1689" x="29.0806" y="66.75">U S E R &#129001;</text><text fill="#000000" font-family="sans-serif" font-size="18" lengthAdjust="spacing" textLength="67.1133" x="185.0039" y="66.75">R U N &#128998;</text><text fill="#000000" font-family="sans-serif" font-size="18" lengthAdjust="spacing" textLength="60.3984" x="354.001" y="66.75">G U I &#129000;</text><text fill="#000000" font-family="sans-serif" font-size="18" lengthAdjust="spacing" textLength="66.3135" x="553.6011" y="66.75">A N C &#128997;</text><!--SRC=[bPBFQjj04CRlUeeXlJYN7aeB9ZuKeKWcuBWWOthUQiVsajMka5OjQHDe8Rdaa10Q2la3xY6EaqjwxVFu1Tf7wEpA4KuWWXvtvlj-caypHXY9u2T6V4JeQr4W14mbA2KpGYk8fFwKJ5XkuE_qx9ldxGrX0274z9pUxNaPItRO665jcvaU-x06BpRVXEtDr_350zWO66jSN1rsl7sonZ24lZNUh1ZpKhrChSyFsr5G-RQKC899yHcXG6E46XUmk3Z_y_kaOzjngQ0xt2BIZvchMNYNuBOqlLs1ZqlXu54KlGgMy04QI3N7WiJp-nhezmCRyQYY-JIeVKzdApJwBnMj7OGFj1WPXqIhaHYJ_Fkfu_Kq5Japp9QEEayYPIndAHhCxGHdyuv7VJ62Leo9phcRxQtjV5q7Cq45hLqiradZlkOahEH2a-Jush9Hqj9QIbiDAYv63y21I4jQ8pOYQn7ZB7DNC19oETpyPoF_7UbJcwY9NuiUnJx-rKYEaPU9kxycj9zbSXUKEzgyTX1y_YnyutqkAAlKRbi7rRB_vwH3nKbtINlU_mS0]--></g></svg>